<mxfile host="app.diagrams.net" modified="2023-01-27T13:00:05.870Z" agent="5.0 (Macintosh; Intel Mac OS X 10_15_7) AppleWebKit/537.36 (KHTML, like Gecko) Chrome/109.0.0.0 Safari/537.36" etag="10br69nQJjrR7gq3fEej" version="20.8.10" type="github">
  <diagram id="lSXo6FvmJilfPOlthVnX" name="Page-1">
    <mxGraphModel dx="709" dy="482" grid="1" gridSize="10" guides="1" tooltips="1" connect="1" arrows="1" fold="1" page="1" pageScale="1" pageWidth="827" pageHeight="1169" math="0" shadow="0">
      <root>
        <mxCell id="0" />
        <mxCell id="1" parent="0" />
        <mxCell id="7NRWt_Nte3OYTXp29tZT-6" style="edgeStyle=orthogonalEdgeStyle;rounded=0;orthogonalLoop=1;jettySize=auto;html=1;entryX=0.5;entryY=0;entryDx=0;entryDy=0;" parent="1" source="7NRWt_Nte3OYTXp29tZT-1" target="7NRWt_Nte3OYTXp29tZT-2" edge="1">
          <mxGeometry relative="1" as="geometry" />
        </mxCell>
        <mxCell id="7NRWt_Nte3OYTXp29tZT-1" value="Route53" style="rounded=0;whiteSpace=wrap;html=1;" parent="1" vertex="1">
          <mxGeometry x="100" y="300" width="410" height="40" as="geometry" />
        </mxCell>
        <mxCell id="7NRWt_Nte3OYTXp29tZT-4" value="" style="edgeStyle=orthogonalEdgeStyle;rounded=0;orthogonalLoop=1;jettySize=auto;html=1;" parent="1" source="7NRWt_Nte3OYTXp29tZT-2" target="7NRWt_Nte3OYTXp29tZT-3" edge="1">
          <mxGeometry relative="1" as="geometry" />
        </mxCell>
        <mxCell id="7NRWt_Nte3OYTXp29tZT-2" value="Load Balancer" style="rounded=0;whiteSpace=wrap;html=1;" parent="1" vertex="1">
          <mxGeometry x="200" y="380" width="210" height="30" as="geometry" />
        </mxCell>
        <mxCell id="7NRWt_Nte3OYTXp29tZT-3" value="Target Group" style="rounded=0;whiteSpace=wrap;html=1;verticalAlign=top;" parent="1" vertex="1">
          <mxGeometry x="202" y="450" width="206" height="110" as="geometry" />
        </mxCell>
        <mxCell id="7NRWt_Nte3OYTXp29tZT-7" value="EC2" style="rounded=0;whiteSpace=wrap;html=1;" parent="1" vertex="1">
          <mxGeometry x="220" y="490" width="40" height="60" as="geometry" />
        </mxCell>
        <mxCell id="7NRWt_Nte3OYTXp29tZT-8" value="EC2" style="rounded=0;whiteSpace=wrap;html=1;" parent="1" vertex="1">
          <mxGeometry x="285" y="490" width="40" height="60" as="geometry" />
        </mxCell>
        <mxCell id="7NRWt_Nte3OYTXp29tZT-9" value="EC2" style="rounded=0;whiteSpace=wrap;html=1;" parent="1" vertex="1">
          <mxGeometry x="350" y="490" width="40" height="60" as="geometry" />
        </mxCell>
        <mxCell id="7NRWt_Nte3OYTXp29tZT-10" value="Transit Gateway" style="rounded=0;whiteSpace=wrap;html=1;" parent="1" vertex="1">
          <mxGeometry x="780" y="360" width="210" height="30" as="geometry" />
        </mxCell>
        <mxCell id="eIWQ8E9xelbbtzbxb4QM-1" value="IAM" style="rounded=0;whiteSpace=wrap;html=1;fillColor=#fff2cc;strokeColor=#d6b656;" parent="1" vertex="1">
          <mxGeometry x="40" y="720" width="700" height="40" as="geometry" />
        </mxCell>
        <mxCell id="eIWQ8E9xelbbtzbxb4QM-9" style="edgeStyle=orthogonalEdgeStyle;rounded=0;orthogonalLoop=1;jettySize=auto;html=1;" parent="1" source="eIWQ8E9xelbbtzbxb4QM-5" target="eIWQ8E9xelbbtzbxb4QM-7" edge="1">
          <mxGeometry relative="1" as="geometry" />
        </mxCell>
        <mxCell id="eIWQ8E9xelbbtzbxb4QM-5" value="Policy" style="rounded=0;whiteSpace=wrap;html=1;" parent="1" vertex="1">
          <mxGeometry x="440" y="1420" width="90" height="35" as="geometry" />
        </mxCell>
        <mxCell id="eIWQ8E9xelbbtzbxb4QM-6" value="Resource" style="rounded=0;whiteSpace=wrap;html=1;" parent="1" vertex="1">
          <mxGeometry x="220" y="1492.5" width="80" height="30" as="geometry" />
        </mxCell>
        <mxCell id="eIWQ8E9xelbbtzbxb4QM-8" value="" style="edgeStyle=orthogonalEdgeStyle;rounded=0;orthogonalLoop=1;jettySize=auto;html=1;" parent="1" source="eIWQ8E9xelbbtzbxb4QM-7" target="eIWQ8E9xelbbtzbxb4QM-6" edge="1">
          <mxGeometry relative="1" as="geometry" />
        </mxCell>
        <mxCell id="eIWQ8E9xelbbtzbxb4QM-7" value="Action" style="rounded=0;whiteSpace=wrap;html=1;" parent="1" vertex="1">
          <mxGeometry x="220" y="1422.5" width="80" height="30" as="geometry" />
        </mxCell>
        <mxCell id="eIWQ8E9xelbbtzbxb4QM-11" value="Authorizition" style="text;html=1;strokeColor=none;fillColor=none;align=center;verticalAlign=middle;whiteSpace=wrap;rounded=0;" parent="1" vertex="1">
          <mxGeometry x="340" y="1410" width="70" height="30" as="geometry" />
        </mxCell>
        <mxCell id="eIWQ8E9xelbbtzbxb4QM-17" style="edgeStyle=orthogonalEdgeStyle;rounded=0;orthogonalLoop=1;jettySize=auto;html=1;entryX=0;entryY=0.5;entryDx=0;entryDy=0;" parent="1" source="eIWQ8E9xelbbtzbxb4QM-12" target="eIWQ8E9xelbbtzbxb4QM-14" edge="1">
          <mxGeometry relative="1" as="geometry" />
        </mxCell>
        <mxCell id="eIWQ8E9xelbbtzbxb4QM-18" style="edgeStyle=orthogonalEdgeStyle;rounded=0;orthogonalLoop=1;jettySize=auto;html=1;entryX=0;entryY=0.5;entryDx=0;entryDy=0;" parent="1" source="eIWQ8E9xelbbtzbxb4QM-12" target="eIWQ8E9xelbbtzbxb4QM-15" edge="1">
          <mxGeometry relative="1" as="geometry" />
        </mxCell>
        <mxCell id="eIWQ8E9xelbbtzbxb4QM-19" style="edgeStyle=orthogonalEdgeStyle;rounded=0;orthogonalLoop=1;jettySize=auto;html=1;entryX=0;entryY=0.5;entryDx=0;entryDy=0;" parent="1" source="eIWQ8E9xelbbtzbxb4QM-12" target="eIWQ8E9xelbbtzbxb4QM-16" edge="1">
          <mxGeometry relative="1" as="geometry" />
        </mxCell>
        <mxCell id="eIWQ8E9xelbbtzbxb4QM-12" value="User" style="rounded=0;whiteSpace=wrap;html=1;fillColor=#ffe6cc;strokeColor=#d79b00;" parent="1" vertex="1">
          <mxGeometry x="220" y="840" width="80" height="30" as="geometry" />
        </mxCell>
        <mxCell id="eIWQ8E9xelbbtzbxb4QM-13" value="AWS Console" style="text;html=1;strokeColor=none;fillColor=none;align=center;verticalAlign=middle;whiteSpace=wrap;rounded=0;" parent="1" vertex="1">
          <mxGeometry x="100" y="820" width="100" height="30" as="geometry" />
        </mxCell>
        <mxCell id="eIWQ8E9xelbbtzbxb4QM-14" value="Policy" style="rounded=0;whiteSpace=wrap;html=1;fillColor=#f8cecc;strokeColor=#b85450;" parent="1" vertex="1">
          <mxGeometry x="390" y="800" width="80" height="30" as="geometry" />
        </mxCell>
        <mxCell id="eIWQ8E9xelbbtzbxb4QM-15" value="Policy" style="rounded=0;whiteSpace=wrap;html=1;fillColor=#f8cecc;strokeColor=#b85450;" parent="1" vertex="1">
          <mxGeometry x="390" y="840" width="80" height="30" as="geometry" />
        </mxCell>
        <mxCell id="eIWQ8E9xelbbtzbxb4QM-16" value="Policy" style="rounded=0;whiteSpace=wrap;html=1;fillColor=#f8cecc;strokeColor=#b85450;" parent="1" vertex="1">
          <mxGeometry x="390" y="880" width="80" height="30" as="geometry" />
        </mxCell>
        <mxCell id="eIWQ8E9xelbbtzbxb4QM-23" value="AWS APIs" style="rounded=0;whiteSpace=wrap;html=1;fillColor=#d5e8d4;strokeColor=#82b366;" parent="1" vertex="1">
          <mxGeometry x="550" y="800" width="70" height="110" as="geometry" />
        </mxCell>
        <mxCell id="eIWQ8E9xelbbtzbxb4QM-24" value="" style="shape=flexArrow;endArrow=classic;html=1;rounded=0;" parent="1" edge="1">
          <mxGeometry width="50" height="50" relative="1" as="geometry">
            <mxPoint x="480" y="854.5" as="sourcePoint" />
            <mxPoint x="540" y="854.5" as="targetPoint" />
          </mxGeometry>
        </mxCell>
        <mxCell id="YwJTxmPq-eyD5qL9XBfh-12" value="" style="edgeStyle=orthogonalEdgeStyle;curved=1;rounded=0;orthogonalLoop=1;jettySize=auto;html=1;" edge="1" parent="1" source="eIWQ8E9xelbbtzbxb4QM-25" target="eIWQ8E9xelbbtzbxb4QM-27">
          <mxGeometry relative="1" as="geometry" />
        </mxCell>
        <mxCell id="eIWQ8E9xelbbtzbxb4QM-25" value="How AWS know who the User is and the Policies associated with the User?" style="text;html=1;strokeColor=none;fillColor=none;align=center;verticalAlign=middle;whiteSpace=wrap;rounded=0;" parent="1" vertex="1">
          <mxGeometry x="194" y="1000" width="440" height="30" as="geometry" />
        </mxCell>
        <mxCell id="eIWQ8E9xelbbtzbxb4QM-26" value="&lt;span style=&quot;color: rgb(0, 0, 0); font-family: Helvetica; font-size: 12px; font-style: normal; font-variant-ligatures: normal; font-variant-caps: normal; font-weight: 400; letter-spacing: normal; orphans: 2; text-align: center; text-indent: 0px; text-transform: none; widows: 2; word-spacing: 0px; -webkit-text-stroke-width: 0px; background-color: rgb(251, 251, 251); text-decoration-thickness: initial; text-decoration-style: initial; text-decoration-color: initial; float: none; display: inline !important;&quot;&gt;sign in as IAM user:&lt;br&gt;username &amp;amp; password&lt;br&gt;&lt;/span&gt;" style="text;html=1;strokeColor=none;fillColor=none;align=center;verticalAlign=middle;whiteSpace=wrap;rounded=0;" parent="1" vertex="1">
          <mxGeometry x="190" y="790" width="135" height="30" as="geometry" />
        </mxCell>
        <mxCell id="eIWQ8E9xelbbtzbxb4QM-27" value="Access Keys &amp;amp; Secret Access Key" style="text;html=1;strokeColor=none;fillColor=none;align=center;verticalAlign=middle;whiteSpace=wrap;rounded=0;" parent="1" vertex="1">
          <mxGeometry x="299" y="1060" width="230" height="30" as="geometry" />
        </mxCell>
        <mxCell id="YwJTxmPq-eyD5qL9XBfh-9" style="edgeStyle=orthogonalEdgeStyle;curved=1;rounded=0;orthogonalLoop=1;jettySize=auto;html=1;" edge="1" parent="1" source="YwJTxmPq-eyD5qL9XBfh-5" target="YwJTxmPq-eyD5qL9XBfh-8">
          <mxGeometry relative="1" as="geometry" />
        </mxCell>
        <mxCell id="YwJTxmPq-eyD5qL9XBfh-5" value="AWS CLI" style="text;html=1;strokeColor=none;fillColor=none;align=center;verticalAlign=middle;whiteSpace=wrap;rounded=0;" vertex="1" parent="1">
          <mxGeometry x="120" y="910" width="60" height="30" as="geometry" />
        </mxCell>
        <mxCell id="YwJTxmPq-eyD5qL9XBfh-10" style="edgeStyle=orthogonalEdgeStyle;curved=1;rounded=0;orthogonalLoop=1;jettySize=auto;html=1;entryX=0;entryY=0.5;entryDx=0;entryDy=0;" edge="1" parent="1" source="YwJTxmPq-eyD5qL9XBfh-6" target="YwJTxmPq-eyD5qL9XBfh-8">
          <mxGeometry relative="1" as="geometry" />
        </mxCell>
        <mxCell id="YwJTxmPq-eyD5qL9XBfh-6" value="AWS SDK" style="text;html=1;strokeColor=none;fillColor=none;align=center;verticalAlign=middle;whiteSpace=wrap;rounded=0;" vertex="1" parent="1">
          <mxGeometry x="120" y="950" width="60" height="30" as="geometry" />
        </mxCell>
        <mxCell id="YwJTxmPq-eyD5qL9XBfh-11" value="" style="edgeStyle=orthogonalEdgeStyle;curved=1;rounded=0;orthogonalLoop=1;jettySize=auto;html=1;" edge="1" parent="1" source="YwJTxmPq-eyD5qL9XBfh-8" target="eIWQ8E9xelbbtzbxb4QM-25">
          <mxGeometry relative="1" as="geometry" />
        </mxCell>
        <mxCell id="YwJTxmPq-eyD5qL9XBfh-8" value="这两种操作API的方法也需要让AWS识别出你是一个合法的User" style="text;html=1;strokeColor=none;fillColor=none;align=center;verticalAlign=middle;whiteSpace=wrap;rounded=0;" vertex="1" parent="1">
          <mxGeometry x="231" y="920" width="365" height="40" as="geometry" />
        </mxCell>
        <mxCell id="YwJTxmPq-eyD5qL9XBfh-13" value="aws configure, 配置access key和secret access key (从登陆后的AWS console中获取)" style="text;html=1;strokeColor=none;fillColor=none;align=center;verticalAlign=middle;whiteSpace=wrap;rounded=0;" vertex="1" parent="1">
          <mxGeometry x="110" y="1130" width="460" height="50" as="geometry" />
        </mxCell>
      </root>
    </mxGraphModel>
  </diagram>
</mxfile>
